<?xml version="1.0" encoding="UTF-8"?>
<svg width="110px" height="110px" viewBox="0 0 110 110" version="1.1" xmlns="http://www.w3.org/2000/svg" xmlns:xlink="http://www.w3.org/1999/xlink">
    <!-- Generator: Sketch 59 (86127) - https://sketch.com -->
    <title>spot_illustration_vetted</title>
    <desc>Created with Sketch.</desc>
    <g id="FINAL" stroke="none" stroke-width="1" fill="none" fill-rule="evenodd">
        <g id="4_www_boarding-mobile" transform="translate(-132.000000, -2462.000000)">
            <g id="bottom" transform="translate(-0.000000, 638.000000)">
                <g id="trust-and-safety" transform="translate(11.000000, 1760.000000)">
                    <g id="img1" transform="translate(0.000000, 64.000000)">
                        <g id="spot_illustration_vetted" transform="translate(121.000000, 0.000000)">
                            <g>
                                <circle id="Oval" fill="#EEEEEE" fill-rule="nonzero" cx="55" cy="55" r="55"></circle>
                                <g id="Group-12" transform="translate(18.333333, 23.390805)" fill-rule="nonzero">
                                    <rect id="Rectangle" fill="#272223" opacity="0.1" x="14.191358" y="1.4191358" width="47.5410494" height="61.7324074"></rect>
                                    <rect id="Rectangle" fill="#FFFFFF" x="12.7722222" y="-5.68434189e-14" width="47.5410494" height="61.7324074"></rect>
                                    <rect id="Rectangle" fill="#D6D6D6" x="17.0296296" y="8.51481481" width="38.3166667" height="1.4191358" rx="0.709567901"></rect>
                                    <rect id="Rectangle" fill="#D6D6D6" x="17.0296296" y="12.0626543" width="33.3496914" height="1.4191358" rx="0.709567901"></rect>
                                    <rect id="Rectangle" fill="#D6D6D6" x="17.7391975" y="15.6104938" width="31.2209877" height="1.4191358" rx="0.709567901"></rect>
                                    <rect id="Rectangle" fill="#D6D6D6" x="17.0296296" y="51.7984568" width="33.3496914" height="1.4191358" rx="0.709567901"></rect>
                                    <rect id="Rectangle" fill="#D6D6D6" x="17.7391975" y="55.3462963" width="31.2209877" height="1.4191358" rx="0.709567901"></rect>
                                    <rect id="Rectangle" fill="#D6D6D6" x="17.0296296" y="21.287037" width="38.3166667" height="1.4191358" rx="0.709567901"></rect>
                                    <rect id="Rectangle" fill="#D6D6D6" x="17.0296296" y="24.1253086" width="38.3166667" height="1.4191358" rx="0.709567901"></rect>
                                    <rect id="Rectangle" fill="#D6D6D6" x="17.7391975" y="27.6731481" width="35.4783951" height="1.4191358" rx="0.709567901"></rect>
                                    <rect id="Rectangle" fill="#D6D6D6" x="17.7391975" y="31.2209877" width="36.8975309" height="1.4191358" rx="0.709567901"></rect>
                                    <polygon id="Path" fill="#2DBE96" points="56.7731572 43.3176326 56.757707 43.2496514 56.757707 43.2496514"></polygon>
                                    <polygon id="Path" fill="#272223" opacity="0.1" points="26.8657928 9.93395062 35.4783951 42.1973168 10.0508581 48.9601852 0.709567901 17.1175787"></polygon>
                                    <polygon id="Path" fill="#FFFFFF" points="26.1562249 9.22438272 34.7688272 41.4877489 9.34129021 48.2506173 -3.19744231e-14 16.4080108"></polygon>
                                    <path d="M2.1287037,17.8265994 C2.38234949,17.684052 24.9965521,11.3530864 24.9965521,11.3530864 L31.9305556,36.1966257 L9.01075563,42.5740741 L2.1287037,17.8265994 Z" id="Path" fill="#00BF8F"></path>
                                    <path d="M28.5093483,33.1901334 C28.255057,33.2163088 27.9995286,33.2286925 27.7438912,33.2272297 C27.3627122,33.2272297 26.9040578,33.2426866 26.4082151,33.2272297 L25.9681548,33.2272297 C25.6024709,33.2272297 25.2026977,33.2272297 24.7967266,33.2272297 C24.114943,33.2272297 23.4052682,33.2612348 22.7761679,33.2828743 L21.9890177,30.9643499 C22.3152977,30.5443631 22.5601763,30.0673472 22.7110885,29.5577784 C22.7110885,29.5577784 22.6955934,28.8313074 22.61192,27.8760753 C23.1449508,27.6318574 23.4827436,26.6611685 23.3866741,25.8790529 C23.3686003,25.5357005 23.2080322,25.2153571 22.9435148,24.9949223 C22.8614336,24.9358733 22.7717995,24.8880479 22.6769993,24.8527194 C22.6429102,24.7847094 22.61192,24.713608 22.5716328,24.6394152 C22.1656616,23.8974874 21.8960472,22.3116166 21.7689875,21.427486 C22.1997508,20.4753453 21.2080655,17.9744302 19.8383003,18.5277847 C18.9984668,18.867835 19.1503186,19.2511644 18.7629416,19.4799254 C18.8528131,19.374819 19.1317245,18.6297998 18.6296839,18.6761703 C18.1276432,18.7225408 18.7133573,19.0935047 16.6525114,19.6777729 C14.9263592,20.1662087 13.9687632,20.701015 13.4357323,21.1709026 C12.5060274,21.7891758 12.815929,22.4816418 12.815929,22.4816418 C11.7405703,22.694946 12.815929,25.4648099 13.5039107,26.9703051 C13.3934063,27.0230483 13.2894104,27.088404 13.194009,27.1650611 C12.9171206,27.3875871 12.7850119,27.7437562 12.8500182,28.0924709 C12.9801769,29.0569771 14.129912,30.1513206 15.1153992,29.7247121 C15.303551,30.2063629 15.5272953,30.6734127 15.7847868,31.1220095 C15.9691096,31.3146518 16.1774049,31.4829545 16.4045901,31.6228108 L16.4045901,31.6228108 L16.4045901,31.6228108 C16.4262832,31.7062777 16.6060261,32.3585559 16.8725416,33.2024988 L16.8725416,33.2024988 L17.3218989,34.7110854 C16.8539475,34.9367551 16.3116196,35.2057039 15.9025494,35.4406478 C15.7909848,35.5024751 15.6856183,35.5673938 15.5926478,35.6230383 L14.5668733,36.2938648 L13.8664956,36.7575696 C12.6702753,37.3758428 11.6971841,37.9477455 11.5081441,38.1734152 C11.2571238,38.4825518 10.9379251,40.1302499 10.6435185,41.8645062 C16.1163815,40.4177469 25.7543227,37.7622636 31.2209877,36.2165806 C30.1239358,34.5565171 29.0361811,33.1221233 28.5093483,33.1901334 Z" id="Path" fill="#009972"></path>
                                    <path d="M41.3775265,49.464811 L40.0741031,48.445553 C39.685391,48.1297792 39.6224915,47.5585955 39.9331078,47.1651887 L43.9060426,42.2041704 C44.2205487,41.8138915 44.7894394,41.7507385 45.1812669,42.0626068 L46.49409,43.0850107 C46.8830544,43.3996923 46.9447413,43.9711888 46.6319521,44.3622291 L42.6590173,49.3263933 C42.5082894,49.5167384 42.2878958,49.6385237 42.0470873,49.6645342 C41.8062789,49.6905446 41.5651288,49.618612 41.3775265,49.464811 Z" id="Path" fill="#B2B2B2"></path>
                                    <path d="M62.8183093,22.2886873 C56.7093513,17.3789057 47.7767515,18.3506714 42.866567,24.459211 C37.9563825,30.5677506 38.9279154,39.4999899 45.0365707,44.410148 C51.145226,49.3203061 60.0778858,48.3490909 64.9884468,42.240854 C69.8976824,36.1315722 68.9261975,27.1997742 62.8183093,22.2886873 L62.8183093,22.2886873 Z M47.502029,41.3453293 C43.0892406,37.7964959 42.388501,31.3426945 45.9367941,26.9295398 C49.4850873,22.5163851 55.9390602,21.8146591 60.352967,25.3621016 C64.7668737,28.9095442 65.4696475,35.3631243 61.9227455,39.7773971 C60.2187471,41.8980967 57.7418444,43.2547936 55.0372394,43.5488593 C52.3326344,43.8429249 49.6220154,43.0502556 47.502029,41.3453293 Z" id="Shape" fill="#B2B2B2"></path>
                                    <path d="M33.1798939,43.8786698 L35.7095805,43.8786698 C36.5435442,43.8786698 37.2196055,44.5547311 37.2196055,45.3886948 L37.2196055,69.0049083 C37.2196055,69.8388721 36.5435442,70.5149333 35.7095805,70.5149333 L33.1798939,70.5149333 C32.3459301,70.5149333 31.6698689,69.8388721 31.6698689,69.0049083 L31.6698689,45.3886948 C31.6698689,44.5547311 32.3459301,43.8786698 33.1798939,43.8786698 Z" id="Rectangle" fill="#00C599" transform="translate(34.444737, 57.196802) rotate(38.790000) translate(-34.444737, -57.196802) "></path>
                                </g>
                            </g>
                        </g>
                    </g>
                </g>
            </g>
        </g>
    </g>
</svg>