<?xml version="1.0" encoding="UTF-8"?>
<svg width="110px" height="110px" viewBox="0 0 110 110" version="1.1" xmlns="http://www.w3.org/2000/svg" xmlns:xlink="http://www.w3.org/1999/xlink">
    <!-- Generator: Sketch 59 (86127) - https://sketch.com -->
    <title>spot_illustration_insurance</title>
    <desc>Created with Sketch.</desc>
    <g id="FINAL" stroke="none" stroke-width="1" fill="none" fill-rule="evenodd">
        <g id="4_www_boarding-mobile" transform="translate(-133.000000, -2735.000000)">
            <g id="bottom" transform="translate(-0.000000, 638.000000)">
                <g id="trust-and-safety" transform="translate(11.000000, 1760.000000)">
                    <g id="img2" transform="translate(0.000000, 337.000000)">
                        <g id="spot_illustration_insurance" transform="translate(122.000000, 0.000000)">
                            <g>
                                <circle id="Oval" fill="#EEEEEE" fill-rule="nonzero" cx="54.9497312" cy="54.9497312" r="54.9497312"></circle>
                                <path d="M28.4551075,82.7956989 C27.7633507,82.7924436 27.2043011,82.230743 27.2043011,81.5389785 L27.3580645,26.5567204 C27.3742787,25.1120363 28.5509248,23.9499004 29.9956989,23.951611 L69.5306452,24.0610215 C70.973546,24.0706949 72.1408642,25.2380132 72.1505376,26.680914 L71.9967742,81.663172 C71.9918992,82.3537727 71.4306717,82.9110215 70.7400538,82.9110215" id="Path" fill="#85603A" fill-rule="nonzero"></path>
                                <rect id="Rectangle" fill="#FFFFFF" fill-rule="nonzero" x="30.513172" y="27.2900538" width="38.1658602" height="52.5456989"></rect>
                                <rect id="Rectangle" fill="#D6D6D6" fill-rule="nonzero" x="34.0822581" y="32.8403226" width="30.1760753" height="1.76827957" rx="0.884139785"></rect>
                                <rect id="Rectangle" fill="#D6D6D6" fill-rule="nonzero" x="34.0822581" y="36.8204301" width="24.7293011" height="1.76827957" rx="0.884139785"></rect>
                                <rect id="Rectangle" fill="#D6D6D6" fill-rule="nonzero" x="34.0822581" y="40.8034946" width="22.9137097" height="1.76827957" rx="0.884139785"></rect>
                                <rect id="Rectangle" fill="#D6D6D6" fill-rule="nonzero" x="34.0822581" y="47.3236559" width="30.1760753" height="1.76827957" rx="0.884139785"></rect>
                                <rect id="Rectangle" fill="#D6D6D6" fill-rule="nonzero" x="34.0822581" y="51.3067204" width="30.1760753" height="1.76827957" rx="0.884139785"></rect>
                                <rect id="Rectangle" fill="#D6D6D6" fill-rule="nonzero" x="34.0822581" y="55.286828" width="27.4586022" height="1.76827957" rx="0.884139785"></rect>
                                <rect id="Rectangle" fill="#D6D6D6" fill-rule="nonzero" x="34.0822581" y="59.2698925" width="29.0879032" height="1.76827957" rx="0.884139785"></rect>
                                <rect id="Rectangle" fill="#D6D6D6" fill-rule="nonzero" x="34.0822581" y="72.880914" width="11.9935484" height="1.76827957" rx="0.884139785"></rect>
                                <path d="M61.1475806,26.1959677 C59.8021505,25.3266129 59.1989247,25.3946237 58.4301075,25.3709677 C58.2112903,25.3709677 56.8008065,25.3709677 54.8817204,25.3709677 C54.8965054,24.483871 54.9172043,23.0053763 54.9053763,22.7096774 C54.8846774,22.0354839 54.0596774,22.0325269 53.344086,21.452957 C52.7201613,20.9443548 52.4096774,19.5456989 52.4096774,19.5456989 L50.883871,21.5860215 L49.7897849,21.5623656 L48.4946237,19.516129 C48.4946237,19.516129 48.2403226,20.7876344 47.311828,21.3405914 C46.8268817,21.6362903 45.8333333,21.988172 45.7889785,22.541129 C45.7712366,22.7362903 45.7889785,24.5163978 45.7889785,25.4360215 C43.3642473,25.4537634 41.5013441,25.4685484 41.2943548,25.4655914 C40.6674731,25.4655914 40.0169355,25.8973118 39.4610215,26.3053763 C38.9051075,26.7134409 38.6655914,27.5532258 38.5916667,27.8193548 C38.5177419,28.0854839 38.5650538,28.2747312 38.8548387,28.2776882 L62.0672043,28.3427419 C62.1502876,28.3128969 62.2189696,28.2526681 62.2594086,28.1741935 C62.3215054,28.052957 62.4930108,27.0653226 61.1475806,26.1959677 Z" id="Path" fill="#B2B2B2" fill-rule="nonzero"></path>
                                <path d="M50.3752688,17.8897849 C49.2320988,17.8897849 48.3053763,18.8165074 48.3053763,19.9596774 C48.3053763,21.1028475 49.2320988,22.0295699 50.3752688,22.0295699 C51.5184389,22.0295699 52.4451613,21.1028475 52.4451613,19.9596774 C52.4451613,18.8165074 51.5184389,17.8897849 50.3752688,17.8897849 Z M50.5645161,20.9946237 C50.1159029,21.0833267 49.6620943,20.8679638 49.4471213,20.4643444 C49.2321484,20.0607249 49.3066716,19.5639656 49.6306169,19.2411941 C49.9545622,18.9184225 50.4515887,18.8457028 50.8544252,19.0621394 C51.2572617,19.2785759 51.470976,19.7331633 51.3806452,20.1814516 C51.2978236,20.5924733 50.9758357,20.9132946 50.5645161,20.9946237 L50.5645161,20.9946237 Z" id="Shape" fill="#B2B2B2" fill-rule="nonzero"></path>
                                <path d="M50.7833333,21.7456989 C49.9851791,21.9307775 49.1611177,21.5637929 48.7647175,20.8467356 C48.3683173,20.1296784 48.4958252,19.2366517 49.0770601,18.6591829 C49.658295,18.0817141 50.5521317,17.960014 51.266597,18.361067 C51.9810623,18.76212 52.3426824,19.5885496 52.1524194,20.3854839 C51.990944,21.0618383 51.4607232,21.5886236 50.7833333,21.7456989 Z M50.7123656,18.7561828 C50.2762907,18.6345379 49.8084912,18.7568431 49.4877556,19.0763545 C49.16702,19.3958659 49.0429268,19.8631943 49.1629032,20.2997312 C49.2767246,20.7218193 49.6050427,21.0523862 50.0263441,21.169086 C50.4628287,21.2920918 50.931729,21.1704005 51.2533092,20.8506578 C51.5748895,20.5309152 51.6992659,20.0627199 51.5787634,19.6255376 C51.465488,19.2020826 51.1354322,18.8709003 50.7123656,18.7561828 L50.7123656,18.7561828 Z" id="Shape" fill="#B2B2B2" fill-rule="nonzero"></path>
                                <g id="_828-shield-selected_2x.png" transform="translate(45.833333, 43.467742)" fill="#00C599" fill-rule="nonzero">
                                    <path d="M43.6983871,7.05537634 C32.166129,7.05537634 22.9107527,0.47016129 22.819086,0.405107527 L22.3163978,0.0384408602 L21.8137097,0.405107527 C21.722043,0.47016129 12.4755376,7.05537634 0.934408602,7.05537634 L0.0798387097,7.05537634 L0.0798387097,16.4290323 C0.0798387097,39.9577957 20.5155914,47.9505376 22.3163978,47.9505376 C24.1172043,47.9505376 44.552957,39.9666667 44.552957,16.4290323 L44.552957,7.05537634 L43.6983871,7.05537634 Z" id="Path"></path>
                                </g>
                                <g id="paw" transform="translate(57.442158, 56.769257)" fill="#FFFFFF" fill-rule="nonzero">
                                    <path d="M17.3696701,14.4616569 C16.6156379,14.148216 15.8320357,13.8229472 15.2199389,13.065958 C14.5516594,12.2498289 14.2914443,11.3597752 14.0371432,10.4933773 C13.6024658,9.01488269 13.1855303,7.63396871 10.8317669,7.63396871 L10.6188637,7.63396871 C8.25327228,7.63396871 7.85112174,9.02375366 7.41348733,10.4933773 C7.15031529,11.3597752 6.88714325,12.2498289 6.23069164,13.065958 C5.61859486,13.8229472 4.83499271,14.148216 4.08391744,14.4616569 C2.84789594,14.967302 1.55864862,15.4995601 1.55864862,17.8917644 C1.55864862,19.5476784 2.04359486,21.307087 5.63042282,21.3928397 C6.58947847,21.4732911 7.54264093,21.1809879 8.29171314,20.5767106 C8.81805723,20.210044 9.3207454,19.8581623 10.7489712,19.8581623 C12.177197,19.8581623 12.6680572,20.210044 13.1973583,20.5767106 C13.8958422,21.1448483 14.7788201,21.4363678 15.6782723,21.3957967 L15.8527346,21.3957967 C19.4395626,21.310044 19.9215519,19.5506354 19.9215519,17.8947214 C19.883111,15.4995601 18.6027346,14.967302 17.3696701,14.4616569 Z" id="Path"></path>
                                    <path d="M8.13499271,6.80601173 C9.53069164,6.41864613 10.2758529,4.60009775 9.79386368,2.73719452 C9.31187443,0.874291295 7.78311099,-0.320332361 6.39628303,0.0759041984 C5.00945508,0.472140758 4.25542282,2.28181818 4.73445508,4.1447214 C5.21348733,6.00762463 6.73929379,7.19633431 8.13499271,6.80601173 Z" id="Path"></path>
                                    <path d="M13.277197,6.80601173 C14.6728959,7.20224828 16.1987024,6.00171065 16.6806916,4.1447214 C17.1626809,2.28773216 16.4175196,0.46326979 15.0129497,0.0759041984 C13.6083798,-0.311461393 12.1032723,0.880205274 11.621283,2.73719452 C11.1392938,4.59418377 11.8785411,6.41273216 13.277197,6.80601173 Z" id="Path"></path>
                                    <path d="M3.55165938,11.3893451 C4.94440131,11.0019795 5.69251959,9.18343108 5.20461637,7.31757087 C4.71671314,5.45171065 3.20273465,4.26595796 1.80703572,4.65628054 C0.411336797,5.04660312 -0.333824493,6.8681085 0.145207765,8.72509775 C0.624240023,10.582087 2.15596045,11.7767106 3.55165938,11.3893451 Z" id="Path"></path>
                                    <path d="M19.608111,4.65332355 C18.2153691,4.26595796 16.6866056,5.45466764 16.2046164,7.31461388 C15.7226271,9.17456011 16.4707454,10.9990225 17.8664443,11.3863881 C19.2621432,11.7737537 20.7820357,10.588001 21.266982,8.72509775 C21.7519282,6.86219452 21.0067669,5.03181818 19.608111,4.65332355 Z" id="Path"></path>
                                </g>
                            </g>
                        </g>
                    </g>
                </g>
            </g>
        </g>
    </g>
</svg>