<svg xmlns="http://www.w3.org/2000/svg" xmlns:xlink="http://www.w3.org/1999/xlink" width="175" height="175" viewBox="0 0 175 175">
    <defs>
        <path id="a" d="M.135 87.734c0 48.049 38.952 87 87 87 48.05 0 87-38.951 87-87s-38.95-87-87-87c-48.048 0-87 38.951-87 87z"/>
        <path id="c" d="M17.221 9.89c7.717.191 8.944-1.062 9.623-1.558.76-.554 5.05-4.745 5.05-4.745-3.035.924-11.737 1.036-13.927.95C6.915 4.107.757.985.757.985c2.556 5.279 7.14 8.675 16.464 8.905z"/>
    </defs>
    <g fill="none" fill-rule="evenodd">
        <mask id="b" fill="#fff">
            <use xlink:href="#a"/>
        </mask>
        <g mask="url(#b)">
            <path fill="#EDEDED" d="M-61.295 205.142h320.812V-40.534H-61.295z"/>
            <path fill="#00BF8F" d="M137.556 144.362c0-3.275-2.484-10.814-10.797-12.361-.927-.173-1.853-.567-2.839-.86a496.081 496.081 0 0 0-7.598-2.182c-12.491-3.493-26.427-7.008-26.427-7.008l-17.41 1.197s-11.261 1.48-18.015 3.051c-.86.2-1.65.403-2.332.602-2.397.706-5.095 1.506-7.943 2.362-5.523 1.66-11.623 3.532-17.268 5.35 5.768 14.046 6.966 31.217 6.953 47.465 1.33-4.098 6.269 3.248 7.259 13.409 4.734.816 9.48 1.555 14.235 2.233 28.52 3.561 57.5 5.528 86.248 4.522-.634-11.25-2.376-40.879-4.066-57.78"/>
            <path fill="#000" d="M89.895 121.951l-17.41 1.196s-11.262 1.48-18.015 3.052c7.605 10.381 22.78 17.043 33.563 17.047 22.181.01 30.874-9.462 35.888-12.104a485.329 485.329 0 0 0-7.599-2.183c-12.49-3.493-26.427-7.008-26.427-7.008" opacity=".2"/>
            <path fill="#00BF8F" d="M41.305 130.313c-10.052 1.94-18.722 3.882-20.524 5.099-4.735 3.2-24.542 46.928-24.542 46.928s21.41 22.827 41.338 21.77l2.378-8.069c3.11-20.43 6.913-45.51 1.35-65.728"/>
            <path fill="#7B5533" d="M59.792 36.088s-.845-5.448 7.045-7.446c7.889-1.998 28.01-3.571 34.127-1.087 6.117 2.485 11.985 13.518 12.114 15.715-28.944-10.54-43.386 2.992-43.386 2.992l-6.246 5.901-3.85 24.336-2.984-2.868s-6.966-38.501 3.18-37.543"/>
            <path fill="#6D482B" d="M108.925 45.529s2.71 7.31 5.628 8.534c0 0 2.802 17.828-1.071 29.025 0 0 7.638-2.26 5.148-14.102-1.681-7.997 1.743-26.567 1.743-26.567s-7.177-.435-11.448 3.11"/>
            <path fill="#4B4C4C" d="M114.114 67.612c-3.785-.201-7.11 4.476-7.43 10.448-.318 5.973 2.49 10.978 6.275 11.18 3.785.202 7.11-4.476 7.429-10.448.32-5.973-2.49-10.977-6.274-11.18"/>
            <path fill="#4B4C4C" d="M118.464 83.026h1.978a3.966 3.966 0 0 0 3.954-3.955 3.966 3.966 0 0 0-3.954-3.954h-1.978a3.966 3.966 0 0 0-3.954 3.954 3.966 3.966 0 0 0 3.954 3.955"/>
            <path fill="#FCC490" d="M65.117 102.344l-.071 27.436c14.265 11.31 28.65 9.382 38.382 3.27l-.929-26.286-37.382-4.42z"/>
            <path fill="#231F20" d="M65.119 102.359s-.134 4.806-.031 11.22c10.405 8.123 24.59 12.63 38.09 12.362l-.677-19.162-37.382-4.42z" opacity=".2"/>
            <path fill="#FCC490" d="M115.83 67.741c-3.325 32.668-10.455 40.004-27.405 40.659-16.95.653-29.115-15.623-29.955-37.38-.839-21.756 2.589-40.47 26.916-41.408 24.326-.94 33.514 7.951 30.443 38.13"/>
            <path fill="#FCC490" d="M88.222 73.721s29.059-26.913 26.91-.188c-1 12.428-5.153 27.59-5.153 27.59s-3.714 6.775-15.403 12.716c-3.491 1.774-8.02.938-11.66.318-11.59-1.979-20.275-14.753-20.757-16.252-.481-1.497-1.657-8.062-2.385-20.005-.448-7.332-1.379-15.11-1.379-15.11l29.827 10.931z"/>
            <path fill="#6D482B" d="M96.812 55.982s2.353-3.669 3.93-3.705c0 0 4.222.795 6.403.395 0 0 4.722-.297 5.25-.221.526.075 3.133.477 2.772 6.418 0 0-.414-2.794-1.729-2.851-1.315-.057-5.499.825-7.253.69-1.755-.134-7.026-.59-9.373-.726M87.982 55.007s-2.372-4.248-3.255-4.226c-.882.023-3.398.76-3.987.863-.588.104-9.432-.82-10.716-.666-1.283.155-3.893 3.59-4.436 5.46 0 0 2.013-1.729 4.099-1.88 2.085-.15 10.927 1.042 12.104 1.101 1.175.06 6.19-.652 6.19-.652"/>
            <path fill="#7B5533" d="M70.77 65.977a.363.363 0 0 1-.172-.065c-.14-.104-.16.123-.096-.037.602-1.488 4.083-3.355 6.65-3.522 3.732-.245 6.507 1.542 7.397 3.155.08.144-1.467-2.236-5.49-2.678-.916-.1-4.434-.394-7.984 3.045a.38.38 0 0 1-.305.102"/>
            <path fill="#FFF" d="M77.387 64.51c-3.488-.246-6.565 1.263-7.209 3.435-.047.16-.084.323-.105.49-.075.621.055 1.225.347 1.787.853 1.635 3.114 2.897 5.902 3.093 3.037.214 5.761-.9 6.843-2.625.12-.193.22-.394.298-.602.084-.225.145-.458.173-.697.294-2.432-2.504-4.617-6.249-4.88"/>
            <path fill="#085E45" d="M71.417 68.228a3.975 3.975 0 0 0 7.921-.643 3.974 3.974 0 0 0-7.92.643"/>
            <path fill="#010101" d="M72.696 67.798a2.56 2.56 0 1 0 5.104-.413 2.56 2.56 0 0 0-5.104.413"/>
            <path fill="#FFF" d="M75.543 66.728a.894.894 0 1 1-1.773-.248.894.894 0 1 1 1.773.248"/>
            <path fill="#33211E" d="M74.578 63.508c8.509-1.148 9.067 5.265 9.067 5.265s-1.119-4.448-7.224-4.297c-6.226.156-6.44 4.467-6.44 4.467s-.911-4.693 4.597-5.435"/>
            <path fill="#FCC490" d="M83.695 69.375s-3.623 1.36-7.874 1.365c-4.253.006-5.739-1.427-5.739-1.427l-2.375 1.091s-1.09 2.43 3.615 3.53c4.708 1.099 13.217-1.37 13.898-2.131.682-.76-1.525-2.428-1.525-2.428"/>
            <path fill="#7B5533" d="M111.187 68.433a.366.366 0 0 0 .179-.044c.15-.086.144.142.1-.025-.417-1.55-3.644-3.828-6.17-4.307-3.676-.697-6.647.737-7.727 2.23-.097.134 1.728-2.041 5.775-1.989.921.013 4.449.15 7.553 3.996a.38.38 0 0 0 .29.139"/>
            <path fill="#FFF" d="M104.798 66.17c3.492.182 6.362 2.053 6.736 4.288.028.165.045.33.044.499a3.037 3.037 0 0 1-.561 1.732c-1.047 1.518-3.445 2.495-6.237 2.35-3.038-.158-5.607-1.597-6.47-3.44a3.384 3.384 0 0 1-.223-.633 3.046 3.046 0 0 1-.087-.714c.005-2.45 3.05-4.277 6.798-4.082"/>
            <path fill="#085E45" d="M99.276 69.767a3.974 3.974 0 1 0 7.942-.265 3.974 3.974 0 0 0-7.942.265"/>
            <path fill="#010101" d="M100.574 69.399a2.56 2.56 0 1 0 5.117-.17 2.56 2.56 0 0 0-5.117.17"/>
            <path fill="#FFF" d="M103.468 68.466a.897.897 0 1 1-.714-1.046c.487.092.806.56.714 1.046"/>
            <path fill="#FCC490" d="M97.944 70.229s3.43 1.791 7.649 2.315c4.22.525 5.87-.717 5.87-.717l2.225 1.373s.786 2.545-4.02 3.062c-4.806.517-12.95-2.971-13.534-3.809-.584-.838 1.81-2.224 1.81-2.224"/>
            <path fill="#33211E" d="M107.709 65.517c-8.306-2.177-9.642 4.12-9.642 4.12s1.652-4.278 7.694-3.382c6.161.912 5.848 5.218 5.848 5.218s1.476-4.547-3.9-5.956"/>
            <path fill="#231F20" d="M90.015 91.825c-1.437.12-6.694-4.91-6.811-5.62-.119-.709 7.899-.826 7.899-.826s5.352.991 5.382 1.348c.029.357-5.033 4.977-6.47 5.098" opacity=".2"/>
            <path fill="#51272F" d="M72.927 91.403s6.158 3.122 17.21 3.553c2.19.086 10.894-.025 13.928-.95 0 0-4.29 4.192-5.05 4.747-.678.495-1.906 1.748-9.624 1.556-9.323-.23-13.908-3.627-16.464-8.906"/>
            <g transform="translate(72.17 90.42)">
                <mask id="d" fill="#fff">
                    <use xlink:href="#c"/>
                </mask>
                <path fill="#FFF" d="M29.664 3.679L3.02 1.727S4.038 6.63 4.277 7.552c0 0 10.833 4.807 23.88 1.789l1.507-5.662z" mask="url(#d)"/>
            </g>
            <g>
                <path fill="#231F20" d="M78.513 99.951s9.98 6.66 19.322.768c0 0-8.438 9.74-19.322-.768" opacity=".2"/>
                <path fill="#7B5533" d="M68.81 47.38s-8.502 2.785-7.266 14.65c.84 8.072.741 9.391 1.482 13.346-2.145-2.515-5.012-3.193-5.435-9.546-.402-6.052 3.035-28.267 3.035-28.267s5.454 4.632 8.184 9.817"/>
                <path fill="#7B5533" d="M59.792 36.088s-.777-11.166 30.214-10.736c14.463.201 11.388-3.304 14.732-2.647 3.343.656.078 4.945-.698 5.469 2.945-.747 2.998-5.202 9.07-5.843 15.558-1.641 16.71 28.554-.446 25.026-15.764-3.241-16.125-5-38.79-1.773-6.15.876-14.082-9.496-14.082-9.496"/>
            </g>
            <g fill="#4B4C4C">
                <path d="M117.043 100.591c.95 2.585-2.229 6.133-7.1 7.924-4.873 1.79-9.592 1.147-10.544-1.438-.95-2.586 2.23-6.133 7.102-7.924 4.872-1.79 9.592-1.147 10.542 1.438M56.298 63.428c3.784-.202 7.14 5.03 7.495 11.684.355 6.656-2.424 12.214-6.209 12.415-3.783.203-7.139-5.028-7.495-11.683-.355-6.655 2.424-12.214 6.209-12.416"/>
                <path d="M53.769 80.307h-1.977a3.966 3.966 0 0 1-3.955-3.954 3.966 3.966 0 0 1 3.955-3.955h1.977a3.966 3.966 0 0 1 3.955 3.955 3.966 3.966 0 0 1-3.955 3.954M114.697 102.299l-1.018-1.694c.052-.032 5.26-3.224 6.855-8.462 1.779-5.846.728-11.457.716-11.512l1.941-.376c.049.249 1.155 6.153-.766 12.463-1.82 5.98-7.488 9.437-7.728 9.581"/>
            </g>
        </g>
    </g>
</svg>
