<?xml version="1.0" encoding="UTF-8"?>
<svg width="1440px" height="405px" viewBox="0 0 1440 405" version="1.1" xmlns="http://www.w3.org/2000/svg" xmlns:xlink="http://www.w3.org/1999/xlink">
    <!-- Generator: Sketch 53.2 (72643) - https://sketchapp.com -->
    <title>Art_Hearts_withBackground</title>
    <desc>Created with Sketch.</desc>
    <g id="Page-1" stroke="none" stroke-width="1" fill="none" fill-rule="evenodd">
        <g id="Desktop-HD" transform="translate(0.000000, -270.000000)">
            <g id="charity" transform="translate(-1.000000, 268.000000)">
                <g id="background">
                    <g id="Art_Hearts_withBackground" transform="translate(1.000000, 0.000000)">
                        <g>
                            <rect id="Rectangle-3" fill="#00BF8F" x="0" y="83" width="1441" height="324"></rect>
                            <g id="harts" transform="translate(332.000000, 0.000000)">
                                <path d="M20.9173367,29.7573775 C14.6640567,20.3789775 2.15901665,25.8684575 2.15901665,36.0851375 C2.15901665,42.9973375 8.40545665,47.9266975 13.1014967,51.6423375 C17.9867767,55.5046575 19.3540167,56.3315375 20.9173367,57.8948575 C22.4806567,56.3315375 23.7870967,55.4225775 28.7339367,51.6423375 C33.4998967,48.0026975 39.6764167,42.9205775 39.6764167,36.0098975 C39.6764167,25.8684575 27.1706167,20.3789775 20.9173367,29.7573775" id="Fill-1" fill="#00BF8F" transform="translate(20.917717, 41.413780) rotate(-8.000000) translate(-20.917717, -41.413780) "></path>
                                <path d="M696.322094,12.2121074 C690.402168,3.33365671 678.563754,8.53050023 678.563754,18.2025433 C678.563754,24.7462636 684.477205,29.4128464 688.922906,32.9304108 C693.547758,36.586836 694.842113,37.3696361 696.322094,38.8496177 C697.802076,37.3696361 699.038871,36.5091315 703.722002,32.9304108 C708.233896,29.4847949 714.081154,24.6735956 714.081154,18.1313143 C714.081154,8.53050023 702.242021,3.33365671 696.322094,12.2121074" id="Fill-1" fill="#00BF8F" transform="translate(696.322454, 23.247124) rotate(-2.000000) translate(-696.322454, -23.247124) "></path>
                                <path d="M847.19789,62.4142069 C841.277964,53.5357563 829.43955,58.7325998 829.43955,68.4046429 C829.43955,74.9483632 835.353001,79.614946 839.798702,83.1325104 C844.423554,86.7889355 845.717909,87.5717357 847.19789,89.0517173 C848.677872,87.5717357 849.914668,86.7112311 854.597798,83.1325104 C859.109692,79.6868945 864.95695,74.8756952 864.95695,68.3334139 C864.95695,58.7325998 853.117817,53.5357563 847.19789,62.4142069" id="Fill-1" fill="#00BF8F" transform="translate(847.198250, 73.449223) rotate(10.000000) translate(-847.198250, -73.449223) "></path>
                                <path d="M179.153214,118.827419 C173.043577,109.664448 160.825788,115.027831 160.825788,125.009826 C160.825788,131.763247 166.928742,136.579376 171.51691,140.209664 C176.289972,143.983264 177.625805,144.79115 179.153214,146.318559 C180.680624,144.79115 181.957054,143.903069 186.790261,140.209664 C191.446743,136.65363 197.481384,131.68825 197.481384,124.936314 C197.481384,115.027831 185.262852,109.664448 179.153214,118.827419" id="Fill-1" fill="#FFFFFF" transform="translate(179.153586, 130.216065) rotate(-6.000000) translate(-179.153586, -130.216065) "></path>
                                <path d="M671.43552,102.747824 C662.492378,89.3352835 644.608266,97.1860759 644.608266,111.797484 C644.608266,121.682983 653.541626,128.732719 660.257679,134.04665 C667.244373,139.570356 669.199735,140.75292 671.43552,142.988706 C673.671306,140.75292 675.539714,139.452969 682.614449,134.04665 C689.430498,128.84141 698.263862,121.573205 698.263862,111.68988 C698.263862,97.1860759 680.378663,89.3352835 671.43552,102.747824" id="Fill-1" fill="#FFFFFF" transform="translate(671.436064, 119.418255) rotate(4.000000) translate(-671.436064, -119.418255) "></path>
                                <path d="M177.869201,11.8757415 C166.94897,-4.50194946 145.111164,5.0844413 145.111164,22.9260377 C145.111164,34.9969534 156.01945,43.6051952 164.22024,50.0938931 C172.751504,56.8387412 175.139143,58.2827386 177.869201,61.0127961 C180.599258,58.2827386 182.880721,56.6954032 191.519489,50.0938931 C199.842382,43.7379156 210.628564,34.8629059 210.628564,22.7946446 C210.628564,5.0844413 188.789431,-4.50194946 177.869201,11.8757415" id="Fill-1" fill="#00BF8F" transform="translate(177.869864, 32.231555) rotate(6.000000) translate(-177.869864, -32.231555) "></path>
                                <path d="M287.58704,64.6919775 C276.666809,48.3142865 254.829003,57.9006773 254.829003,75.7422737 C254.829003,87.8131894 265.737289,96.4214312 273.938079,102.910129 C282.469343,109.654977 284.856982,111.098975 287.58704,113.829032 C290.317097,111.098975 292.59856,109.511639 301.237328,102.910129 C309.560221,96.5541516 320.346403,87.6791419 320.346403,75.6108806 C320.346403,57.9006773 298.50727,48.3142865 287.58704,64.6919775" id="Fill-1" fill="#00BF8F" transform="translate(287.587703, 85.047791) rotate(6.000000) translate(-287.587703, -85.047791) "></path>
                                <path d="M743.090944,54.9233061 C732.170714,38.5456151 710.332908,48.1320058 710.332908,65.9736023 C710.332908,78.044518 721.241193,86.6527598 729.441983,93.1414576 C737.973247,99.8863057 740.360887,101.330303 743.090944,104.060361 C745.821002,101.330303 748.102464,99.7429677 756.741232,93.1414576 C765.064125,86.7854801 775.850308,77.9104704 775.850308,65.8422091 C775.850308,48.1320058 754.011174,38.5456151 743.090944,54.9233061" id="Fill-1" fill="#00BF8F" transform="translate(743.091608, 75.279120) rotate(-15.000000) translate(-743.091608, -75.279120) "></path>
                            </g>
                        </g>
                    </g>
                </g>
            </g>
        </g>
    </g>
</svg>