<svg id="paw" xmlns="http://www.w3.org/2000/svg" width="33.875" height="33.86" viewBox="0 0 33.875 33.86">
  <path id="Path" d="M27.476,22.876a7.833,7.833,0,0,1-3.4-2.208A10.751,10.751,0,0,1,22.2,16.6c-.688-2.339-1.347-4.523-5.07-4.523H16.8c-3.742,0-4.378,2.2-5.07,4.523a11.275,11.275,0,0,1-1.871,4.069,7.846,7.846,0,0,1-3.4,2.208c-1.955.8-3.995,1.642-3.995,5.426,0,2.619.767,5.4,6.441,5.538a5.917,5.917,0,0,0,4.21-1.291A5.624,5.624,0,0,1,17,31.412a5.59,5.59,0,0,1,3.873,1.137,5.8,5.8,0,0,0,3.924,1.3h.276c5.674-.136,6.436-2.919,6.436-5.538C31.451,24.517,29.426,23.676,27.476,22.876Z" fill="#00bf8f"/>
  <path id="Path-2" data-name="Path" d="M12.868,10.766c2.208-.613,3.386-3.489,2.624-6.436S12.311-.507,10.118.12,6.731,3.609,7.489,6.556,10.66,11.383,12.868,10.766Z" fill="#00bf8f"/>
  <path id="Path-3" data-name="Path" d="M21,10.766c2.208.627,4.621-1.272,5.384-4.21S25.97.733,23.748.12s-4.6,1.272-5.365,4.21S18.79,10.144,21,10.766Z" fill="#00bf8f"/>
  <path id="Path-4" data-name="Path" d="M5.618,18.016C7.821,17.4,9,14.527,8.233,11.575S5.066,6.748,2.858,7.365-.528,10.864.23,13.8,3.41,18.629,5.618,18.016Z" fill="#00bf8f"/>
  <path id="Path-5" data-name="Path" d="M31.016,7.361c-2.2-.613-4.621,1.268-5.384,4.21s.421,5.828,2.629,6.441,4.612-1.263,5.379-4.21S33.229,7.959,31.016,7.361Z" fill="#00bf8f"/>
</svg>
