<svg xmlns:xlink="http://www.w3.org/1999/xlink" width="24" height="24" xmlns="http://www.w3.org/2000/svg"><path d="M11.995 24a.413.413 0 01-.181-.038C.944 19.486.983 8.778 1.002 4.744v-.422c0-.27.21-.48.478-.48h1.367c3.317 0 5.974-1.7 8.871-3.756a.503.503 0 01.564 0c2.887 2.056 5.554 3.756 8.871 3.756h1.367c.268 0 .478.21.478.48v.432c.02 4.034.058 14.732-10.802 19.217a.778.778 0 01-.2.029zm3.793-6.734c.624-.076 1.168-.375 1.511-1.2.662-1.586-.502-2.556-1.526-3.408-.247-.206-.5-.417-.73-.635-.148-.142-.298-.332-.458-.534-.55-.697-1.306-1.654-2.754-1.476l-.057.007c-1.449.178-1.95 1.294-2.315 2.108-.106.24-.209.466-.318.639-.17.272-.373.544-.568.81-.78 1.058-1.667 2.255-.648 3.625.933 1.254 2.082.808 3.19.372.498-.196 1.015-.395 1.53-.459l.057-.007c.52-.063 1.07.01 1.606.084.502.064 1.013.132 1.48.074zm-8.1-5.032a1.18 1.18 0 00.66-.299c.566-.51.562-1.481-.016-2.175-.312-.372-.737-.606-1.172-.64a1.248 1.248 0 00-.925.303c-.566.51-.563 1.482.015 2.175.312.373.737.606 1.172.64.093.008.18.007.266-.004zm8.634-1.06c.085-.01.17-.03.254-.056.413-.137.774-.467.982-.904.394-.812.162-1.756-.511-2.114a1.248 1.248 0 00-.971-.07c-.414.139-.77.468-.982.905-.394.813-.162 1.756.51 2.114.223.113.465.156.718.125zm-6.314-1.789c.105-.012.208-.04.304-.08.733-.298 1.049-1.27.711-2.168-.186-.494-.539-.882-.968-1.066a1.273 1.273 0 00-.99-.028c-.732.298-1.048 1.27-.71 2.167.186.495.538.882.962 1.067.23.097.467.136.69.108zm3.373-.414c.224-.027.445-.117.64-.267.371-.283.614-.748.676-1.268.11-.952-.431-1.82-1.214-1.931a1.23 1.23 0 00-.954.267c-.372.283-.62.748-.681 1.269-.11.952.431 1.819 1.214 1.93.108.012.214.013.32 0z" fill="#FFF" fill-rule="nonzero"/></svg>
