 <svg xmlns="http://www.w3.org/2000/svg"
 viewBox="0 0 44 34" 
 fill="#00BF8F"
 width="25px">
<path
    d="M28.454 0C34.273 0 39 4.725 39 10.545c0 1.971-.593 3.958-1.778 5.867-2.215 3.583-16.536 18.696-17.144 19.338a.88.88 0 0 1-.593.25c-.218 0-.421-.094-.562-.25-.608-.641-14.929-15.755-17.144-19.338C.593 14.503 0 12.516 0 10.545 0 4.741 4.727 0 10.546 0c3.682 0 7.051 1.909 8.954 4.96C21.403 1.909 24.773 0 28.454 0zM19.58 13.79h-.164c-1.786 0-2.098 1.17-2.433 2.399a6.07 6.07 0 0 1-.908 2.168c-.439.54-.998.944-1.622 1.17-.937.412-1.919.874-1.919 2.885 0 1.385.402 2.868 3.065 2.943.727.063 1.449-.185 2.016-.692.531-.45 1.194-.665 1.86-.602.666-.061 1.329.153 1.86.602.529.48 1.199.726 1.882.692h0 .134c2.738-.074 3.102-1.558 3.102-2.943 0-1.857-.824-2.386-1.694-2.787l-.218-.098c-.626-.226-1.188-.63-1.629-1.17-.433-.645-.74-1.384-.9-2.168-.335-1.228-.647-2.399-2.433-2.399h0zm6.666-2.506c-1.094-.33-2.225.659-2.582 2.234s.208 3.107 1.265 3.429 2.21-.676 2.582-2.242c.365-1.566-.171-3.091-1.265-3.421zm-10.922 2.234c-.35-1.566-1.525-2.555-2.582-2.234s-1.622 1.855-1.257 3.421c.372 1.566 1.525 2.539 2.582 2.226s1.607-1.846 1.257-3.412zm7.447-6.091c-1.049-.33-2.21.676-2.574 2.242h0c-.372 1.566.201 3.091 1.257 3.421s2.217-.676 2.582-2.242-.216-3.091-1.265-3.421zm-3.965 2.242c-.35-1.566-1.525-2.572-2.582-2.242-1.056.321-1.607 1.855-1.257 3.421s1.525 2.572 2.582 2.242 1.607-1.855 1.257-3.421z"
    fill="#00BF8F" >
    </path>
</svg>