<svg xmlns:xlink="http://www.w3.org/1999/xlink" xmlns="http://www.w3.org/2000/svg" viewBox="0 0 15 9" color="charcoal" display="inline-block" focusable="false" font-size="1.5rem"  style="fill: currentcolor; user-select: none;" width="10" role="img" class="sc-gzVnrw gyfZbH" height="6" ><svg xmlns="http://www.w3.org/2000/svg" width="15" height="9" fill="#474747"><path d="M14.308 2.286l-.108.127L8.05 8.678a1.13 1.13 0 0 1-.171.138l-.12.068-.109.047-.212.055-.088.01h-.178l-.201-.034-.138-.047-.145-.072-.104-.07-.125-.11-6.136-6.25C-.113 1.97-.107 1.258.337.822.74.427 1.365.396 1.803.727l.125.11 5.334 5.431L12.595.837c.435-.443 1.148-.45 1.591-.015.403.396.445 1.02.122 1.464z" fill="#474747"></path></svg><title>Chevron down icon</title></svg>