<svg width="52" height="51" xmlns="http://www.w3.org/2000/svg"><g fill-rule="nonzero" fill="none"><path d="M26.311 48.61a.774.774 0 01-.342-.073C5.497 40.067 5.569 19.8 5.605 12.167v-.8c0-.51.396-.91.9-.91H9.08c6.248 0 11.253-3.216 16.709-7.106a.944.944 0 011.062 0c5.438 3.89 10.462 7.107 16.71 7.107h2.574c.505 0 .9.4.9.909v.818c.037 7.634.109 27.882-20.346 36.37a1.46 1.46 0 01-.378.054z" fill="#FAAB43"/><path d="M33.461 35.869c1.176-.144 2.2-.71 2.846-2.272 1.244-3-.949-4.836-2.878-6.448-.467-.392-.944-.79-1.378-1.204-.278-.268-.56-.627-.862-1.011-1.036-1.32-2.461-3.131-5.19-2.796l-.107.013c-2.728.335-3.672 2.447-4.357 3.986-.2.455-.393.882-.599 1.209-.32.515-.702 1.03-1.069 1.532-1.467 2.002-3.138 4.267-1.217 6.86 1.759 2.375 3.924 1.532 6.009.708.938-.371 1.912-.747 2.882-.866l.107-.013c.979-.12 2.016.018 3.026.159.945.122 1.908.251 2.787.143zm-15.263-9.533a2.216 2.216 0 001.242-.564c1.066-.964 1.059-2.803-.031-4.116-.588-.706-1.39-1.147-2.208-1.212a2.341 2.341 0 00-1.743.571c-1.066.964-1.059 2.803.032 4.116.587.706 1.389 1.148 2.207 1.212.175.015.34.013.5-.007zM34.46 24.34c.161-.02.32-.058.479-.105.779-.26 1.458-.884 1.849-1.71.74-1.537.302-3.324-.965-4.001a2.341 2.341 0 00-1.83-.132c-.778.26-1.449.882-1.848 1.71-.74 1.537-.303 3.323.965 4 .418.215.874.296 1.35.238zm-11.895-3.392c.197-.024.391-.075.573-.153 1.38-.563 1.974-2.402 1.337-4.1-.352-.936-1.016-1.67-1.824-2.02-.625-.27-1.284-.29-1.865-.054-1.38.563-1.974 2.403-1.337 4.1.352.937 1.016 1.67 1.815 2.02.433.186.879.26 1.3.207zm6.354-.78a2.464 2.464 0 001.204-.505c.7-.534 1.157-1.414 1.273-2.399.207-1.801-.815-3.443-2.29-3.655-.622-.098-1.265.082-1.796.504-.7.535-1.165 1.416-1.281 2.4-.207 1.802.814 3.443 2.289 3.656.203.02.403.023.6 0z" fill="#FFF"/></g></svg>
