<svg width="52" height="51" xmlns="http://www.w3.org/2000/svg"><g fill="none" fill-rule="evenodd"><path d="M.462 0h51v51h-51z"/><path opacity=".201" d="M3.65 3.188h44.625v44.625H3.65z"/><path d="M20.409 6.375A12.328 12.328 0 114.446 22.44c.115 8.702 7.172 15.685 15.822 15.647 8.649-.039 15.644-7.084 15.682-15.778.038-8.695-6.897-15.82-15.541-15.934z" fill="#F9CD46"/><g fill-rule="nonzero"><path d="M23.78 43.855a11.406 11.406 0 01-1.992-.31c-1.671-.593-2.28-1.951-2.28-3.701a4.016 4.016 0 014.338-4.017 9.06 9.06 0 01-.067-1.085 8.54 8.54 0 0116.477-3.218h.349a6.185 6.185 0 010 12.367H23.779v-.036z" fill="#FFF"/><path d="M40.605 44.534h-17.48v-.086a8.644 8.644 0 01-1.555-.284c-1.804-.634-2.72-2.09-2.72-4.325a4.68 4.68 0 014.284-4.669v-.433a9.194 9.194 0 0117.559-3.882 6.842 6.842 0 01.31 13.667h-.133c-.086.01-.18.012-.265.012zm-.923-1.343l.681.021h.24a5.527 5.527 0 000-11.052h-.319l-.478.024-.174-.437a7.89 7.89 0 00-15.207 2.974c0 .335.021.67.062 1.004l.098.784-.789-.048H23.5a3.361 3.361 0 00-3.347 3.37c0 1.674.583 2.645 1.84 3.087.6.143 1.212.236 1.827.277l.24.017 15.622-.021z" fill="#EDEDED"/></g><path d="M23.78 43.855a11.406 11.406 0 01-1.992-.31c-1.671-.593-2.28-1.951-2.28-3.701a4.016 4.016 0 014.338-4.017 9.06 9.06 0 01-.067-1.085 8.54 8.54 0 0116.477-3.218h.349a6.185 6.185 0 010 12.367H23.779v-.036z" fill="#FFF" fill-rule="nonzero"/><path fill="#F9CD46" d="M4.678 13.444l1.946-.335.533-2.027.38 2.04 1.908.477-1.967.361-.529 1.946-.337-1.958zM10.554 18.072l3.099-.538.844-3.225.61 3.247 3.042.758-3.138.576-.844 3.103-.531-3.12zM41.405 23.915l1.946-.335.534-2.027.38 2.04 1.905.477-1.965.361-.528 1.946-.338-1.958z"/></g></svg>
