<svg xmlns="http://www.w3.org/2000/svg" viewBox="0 0 81 80"><g transform="translate(11 12)" fill-rule="nonzero" fill="none"><circle fill="#DBED5C" cx="26.518" cy="26.518" r="26.518"/><path d="M14.198 19.647c-.436 1.207-.989 2.421-1.573 3.676-1.428 3.112-2.905 6.318-2.677 9.793.363 5.553 4.575 10.799 10.27 12.718 1.645.514 3.363.76 5.087.73 5.598 0 12.507-2.075 16.404-6.09 5.67-5.823 8.35-17.338 8.592-25.688a26.705 26.705 0 00-2.496-4.067c.716 7.48-1.657 21.785-7.808 28.102-4.938 5.07-14.71 6.224-19.018 4.765-4.717-1.608-8.358-6.068-8.645-10.608-.187-2.87 1.103-5.675 2.466-8.645.577-1.259 1.175-2.562 1.649-3.863 1.843-5.107 2.787-8.022 2.379-13.924a8.88 8.88 0 00-1.74-4.817c-.777.297-1.538.626-2.278.992a6.425 6.425 0 011.629 3.987c.377 5.415-.464 8.022-2.241 12.94z" fill="#A2C23F"/><path d="M48.092 40.287c1.224-1.576 2.956-3.945 4.236-4.64 1.563-.847 3.364-1.546 5.12-.284 1.384.979 2.715 2.988 2.196 4.6-.816 2.54-3.022 3.969-2.915 5.394.108 1.424 2.269 3.54 2.915 4.927.761 1.625 1.574 3.963-.255 5.374-1.83 1.41-3.963 1.573-5.75.691-1.221-.608-3.05-2.22-4.257-3.015-.412-.273-17.265-.56-17.84.02-.629.623-4.066 4.046-5.57 4.371-1.504.325-3.389.464-5.09-1.037-1.701-1.5-2.054-3.966-1.383-4.734.67-.767 3.15-3.423 2.929-4.82-.222-1.397-2.248-2.244-3.41-4.015-1.162-1.77-1.684-4.419-.54-5.664 1.145-1.244 3.656-2.34 5.475-1.822.968.28 3.648 3.202 4.53 4.208.646.737 19.453.65 19.609.446z" fill="#CE8E51"/><circle fill="#A36A3B" cx="47.577" cy="47.037" r="1.954"/><circle fill="#A36A3B" cx="39.364" cy="47.041" r="1.954"/><circle fill="#A36A3B" cx="31.152" cy="46.923" r="1.954"/></g></svg>
