<?xml version="1.0" encoding="UTF-8"?>
<svg width="37px" height="40px" viewBox="0 0 37 40" version="1.1" xmlns="http://www.w3.org/2000/svg" xmlns:xlink="http://www.w3.org/1999/xlink">
    <!-- Generator: Sketch 59 (86127) - https://sketch.com -->
    <title>icon_wag_walk_is06_c0</title>
    <desc>Created with Sketch.</desc>
    <g id="FINAL" stroke="none" stroke-width="1" fill="none" fill-rule="evenodd">
        <g id="Service-slide-Copy-2" transform="translate(-19.000000, -4.000000)">
            <g id="Wag-walk">
                <g id="Group-6">
                    <g id="icon_wag_walk_is06_c0" transform="translate(13.000000, 0.000000)">
                        <g>
                            <g id="container">
                                <rect id="container-bg" x="0" y="0" width="48" height="48"></rect>
                                <rect id="build-area" opacity="0.159999996" x="3" y="3" width="42" height="42"></rect>
                            </g>
                            <g transform="translate(6.000000, 4.500000)">
                                <g id="Dog-body" transform="translate(0.000000, 17.111250)" fill-rule="nonzero">
                                    <path d="M27.1403438,10.2548672 C27.1403438,10.2548672 28.0909688,14.3092828 30.1466953,14.5326797 C32.2024219,14.7560766 33.9491953,14.5992234 35.1374766,15.4357734 C35.4946005,15.6725016 35.8034871,15.9749364 36.0477,16.3269844 C36.0477,16.3269844 36.0477,14.4495 34.8974438,13.9314094 C33.7471875,13.4133188 31.5441141,13.4560969 31.25655,12.3034641 C30.9689859,11.1508313 30.5293219,8.8218 30.7313297,8.34411094 C30.9333375,7.86642188 26.6792906,8.27281406 27.1403438,10.2548672 Z" id="Path" fill="#000000"></path>
                                    <path d="M16.3982813,19.5971344 C16.3982813,19.5971344 14.82975,19.8181547 14.1999609,19.1693531 C13.5701719,18.5205516 13.9195266,17.0637188 13.5464063,16.160625 C13.0306922,14.9723438 10.3261641,12.2107781 10.3261641,12.2107781 L13.8339703,11.8495406 C14.3329646,12.9560115 14.7732404,14.0880361 15.1529625,15.2408953 C15.5094469,16.50285 14.67765,17.4558516 15.0412641,18.3304266 C15.3122461,18.9126456 15.7988077,19.3668266 16.3982813,19.5971344 L16.3982813,19.5971344 Z" id="Path" fill="#000000"></path>
                                    <path d="M6.00319687,6.62585625 C6.00319687,6.62585625 3.86429062,6.46425 2.71403438,5.73702187 C1.4259375,4.93374375 0,2.13890625 0,2.13890625 C0,2.13890625 0.42778125,5.63007656 1.70399531,6.83499375 C2.98020937,8.03991094 5.12386875,8.43204375 5.12386875,8.43204375 L6.00319687,6.62585625 Z" id="Path" fill="#000000"></path>
                                    <path d="M23.8488047,12.5696391 C23.2288975,13.9830789 22.5035856,15.3479046 21.6790031,16.6525734 C23.2943468,16.4944464 24.8618447,16.0153091 26.2895344,15.2432719 C25.2662519,14.5689296 24.4273501,13.6499768 23.8488047,12.5696391 L23.8488047,12.5696391 Z" id="Path" fill="#000000"></path>
                                    <path d="M30.9214547,7.85929219 C30.8454047,5.59680469 29.7070313,0 29.7070313,0 L19.8419203,1.49723437 C19.8419203,1.49723437 18.2258578,3.63614062 16.0394203,4.31346094 C13.8529828,4.99078125 8.02089844,4.99078125 6.49989844,5.7227625 C5.20467187,6.33829219 3.3271875,8.68158281 4.15185469,11.2031156 C4.97652187,13.7246484 9.21393281,13.4156953 9.45871875,12.890475 C9.66547969,12.4579406 9.97918594,12.3628781 11.3362031,12.7716469 C12.6932203,13.1804156 17.5841859,16.3364906 18.9412031,16.6240547 C19.8402323,16.7717209 20.7557528,16.7901273 21.6599906,16.6787156 C22.486054,15.3749072 23.2114268,14.009967 23.8297922,12.5957812 C24.4057569,13.6830594 25.2448621,14.6087714 26.2705219,15.2884266 C26.782498,15.0091675 27.268462,14.6846613 27.7226016,14.3187891 C28.8728578,13.3919297 30.9951281,10.1289094 30.9214547,7.85929219 Z" id="Path" fill="#2E2829"></path>
                                    <path d="M10.3736953,11.3457094 C10.3736953,11.3457094 9.66072656,17.0138109 6.51415781,17.149275 C4.29207188,17.2395844 3.66228281,17.4558516 3.080025,17.909775 C2.49776719,18.3636984 2.48350781,19.1693531 0.606023438,19.1218219 C0.606023438,19.1218219 1.25007188,18.7891031 1.83232969,17.1445219 C2.4145875,15.4999406 2.97783281,15.1244437 3.84527813,15.0270047 C4.71272344,14.9295656 4.17086719,12.3628781 4.05679219,10.7991 C3.94271719,9.23532188 9.57041719,7.65253125 10.3736953,11.3457094 Z" id="Path" fill="#2E2829"></path>
                                    <path d="M27.187875,11.8329047 C27.187875,11.8329047 24.9467766,17.4677344 24.3027281,19.2002484 C23.921703,20.1987319 24.0372377,21.3188007 24.6140578,22.2184828 C24.6140578,22.2184828 22.9789828,21.9950859 22.7341969,19.7302219 C22.4894109,17.4653578 22.9243219,16.3673859 22.6462641,14.5017844 C22.3682063,12.6361828 24.5997984,8.90735625 27.187875,11.8329047 Z" id="Path" fill="#2E2829"></path>
                                </g>
                                <ellipse id="Oval" fill="#F9CD46" fill-rule="nonzero" transform="translate(33.514559, 23.538211) rotate(-60.000000) translate(-33.514559, -23.538211) " cx="33.5145591" cy="23.5382112" rx="1.36177031" ry="2.17930781"></ellipse>
                                <path d="M18.9816047,19.4735531 C20.6119266,20.7838312 22.0243969,21.6599906 23.2190156,22.1020312 C25.0085672,22.7603391 25.3769344,22.8577781 27.1046953,22.8292594 C28.2581203,22.8102469 29.4067922,22.320675 30.5507109,21.3605437 L30.8311453,23.2903125 C29.7807047,24.2694563 28.6383703,24.7582359 27.4041422,24.7566554 C25.5504234,24.7566554 24.6497062,24.6924844 22.6201219,23.8060266 C20.5905375,22.9195687 18.2828953,20.9731641 17.8242188,20.3885297 C18.2401172,20.0653172 18.6251203,19.7587406 18.9816047,19.4735531 Z" id="Path-2" fill="#7786B7"></path>
                                <g id="Group-29" transform="translate(11.407500, 0.000000)">
                                    <path d="M8.88121406,8.12784375 C8.88121406,8.12784375 5.07871406,3.98074219 2.25298125,3.02061094 C-0.572751562,2.06047969 0.0404015625,3.3271875 0.261421875,4.51546875 C0.482442188,5.70375 3.50542969,13.9623047 4.51546875,14.5516922 C5.52550781,15.1410797 8.87408438,8.13497344 8.87408438,8.13497344" id="Fill-1" fill="#2D2829"></path>
                                    <path d="M8.88121406,8.12784375 C8.88121406,8.12784375 5.07871406,3.98074219 2.25298125,3.02061094 C-0.572751562,2.06047969 0.268551563,3.65990625 1.33325156,4.22315156 C2.89227656,5.04781875 5.26170938,7.4719125 7.1677125,10.1051438 C8.13972656,9.02856094 8.88121406,8.12784375 8.88121406,8.12784375" id="Fill-3" fill="#000000" fill-rule="nonzero"></path>
                                    <path d="M12.2226609,6.654375 C12.2226609,6.654375 11.8970719,3.69793125 12.4603172,1.91788594 C13.0235625,0.137840625 14.2997766,-1.25957813 15.6853125,1.80856406 C17.0708484,4.87670625 16.2723234,6.47137969 16.7571422,7.20336094 C17.2419609,7.93534219 17.7885703,8.61028594 17.7885703,8.61028594 L12.2226609,6.654375 Z" id="Fill-5" fill="#000000" fill-rule="nonzero"></path>
                                    <path d="M16.3982813,22.4608922 C17.11125,22.2493781 18.1070297,20.7972984 18.7083,20.5596422 C19.3095703,20.3219859 20.2483125,20.2435594 20.7925453,19.9536188 C21.3367781,19.6636781 21.7431703,18.7083 21.7431703,18.7083 C22.0587205,18.842257 22.421953,18.7959449 22.6937953,18.5870953 C23.2261453,18.2163516 23.2570406,16.5194859 22.8387656,15.6734297 C22.4204906,14.8273734 21.2298328,13.9527984 21.0159422,13.1518969 C20.8020516,12.3509953 20.6879766,10.5376781 20.1746391,9.94116094 C19.1833487,8.86150404 17.9548802,8.02679632 16.5860297,7.50280781 C14.8962938,6.90391406 12.9831609,6.36443438 12.0895734,6.60446719 C11.5220972,6.76131197 10.9662233,6.95745605 10.4259797,7.19147813 L7.36734375,11.9279672 L11.3647219,21.3248953 L13.6961297,22.2256125 C13.6961297,22.2256125 15.6995719,22.6747828 16.4006578,22.4632688" id="Fill-7" fill="#FFFFFF"></path>
                                    <path d="M14.3092828,22.1923406 C15.0365109,21.2417156 13.7056359,19.2929344 13.4299547,18.3375563 C13.0211859,16.9116188 12.8833453,15.248025 13.3657875,13.8220875 C13.5464063,13.2897375 14.0787563,12.5530031 14.0787563,11.9850047 C14.0325569,11.196248 13.8617037,10.4197886 13.5725484,9.68449219 C13.1637797,8.55800156 12.3058406,7.6240125 11.4336422,6.79459219 C10.4628642,7.07475236 9.53287778,7.48062271 8.66732344,8.00188594 C7.795125,8.52235313 4.753125,12.3034641 4.55824688,14.0763797 C4.36336875,15.8492953 6.22184063,17.453475 7.19385469,18.9150609 C8.16586875,20.3766469 11.7093234,22.1994703 12.7597641,22.2042234 C13.2516952,22.2245669 13.7420644,22.272969 14.2284797,22.3491938 C14.2558326,22.2959101 14.2876329,22.2450296 14.3235422,22.1970938" id="Fill-9" fill="#000000" fill-rule="nonzero"></path>
                                    <path d="M20.5406297,10.0338469 C20.9945531,10.7848406 20.9541516,11.6451562 20.4455672,11.9517328 C19.9369828,12.2583094 19.1574703,11.8970719 18.7035469,11.1437016 C18.2496234,10.3903312 18.290025,9.53239219 18.7962328,9.22581562 C19.3024406,8.91923906 20.0843297,9.28047656 20.5406297,10.0338469" id="Fill-11" fill="#818080"></path>
                                    <path d="M13.9955766,12.2321672 C14.2831406,13.3039969 13.5559125,14.4281109 12.3747609,14.7465703 C11.1936094,15.0650297 9.99819844,14.4495 9.71301094,13.3800469 C9.42782344,12.3105938 10.152675,11.1817266 11.3338266,10.8632672 C12.5149781,10.5448078 13.7103891,11.1603375 13.9955766,12.2321672" id="Fill-13" fill="#818080"></path>
                                    <path d="M13.2208172,12.5530031 C13.3562813,13.0592109 12.9308766,13.61295 12.2701922,13.7888156 C11.6095078,13.9646812 10.9654594,13.6985062 10.8299953,13.1922984 C10.6945313,12.6860906 11.1175594,12.1323516 11.7806203,11.9541094 C12.4436813,11.7758672 13.0853531,12.0467953 13.2208172,12.5530031" id="Fill-15" fill="#000000" fill-rule="nonzero"></path>
                                    <path d="M12.7668938,12.3272297 C12.8522984,12.4751608 12.8341368,12.6610349 12.7217125,12.7896363 C12.6092881,12.9182377 12.4275081,12.9610753 12.2694909,12.8962051 C12.1114737,12.8313349 12.0122275,12.6731287 12.022592,12.502629 C12.0329565,12.3321293 12.1506355,12.1871097 12.3153469,12.1418578 C12.4912275,12.070815 12.6916632,12.1530991 12.7668937,12.3272297" id="Fill-17" fill="#FFFFFF"></path>
                                    <path d="M20.6309391,10.3546828 C20.7433678,10.8050291 20.4708953,11.2616073 20.0211645,11.3764734 C19.5714338,11.4913394 19.1133865,11.2213437 18.9960865,10.7722416 C18.8787865,10.3231396 19.1462976,9.86363679 19.5947578,9.74390625 C19.8128573,9.68683978 20.0447013,9.71892144 20.2391088,9.83306899 C20.4335164,9.94721655 20.5745009,10.1340434 20.6309391,10.3523063" id="Fill-19" fill="#000000" fill-rule="nonzero"></path>
                                    <path d="M20.2411828,10.1621813 C20.3059429,10.274077 20.2922452,10.4147915 20.2071205,10.5120968 C20.1219959,10.6094022 19.9843516,10.6416857 19.8648395,10.5923765 C19.7453274,10.5430673 19.6704927,10.4231176 19.6787474,10.2940967 C19.6870021,10.1650758 19.7765129,10.0556408 19.9013344,10.0219641 C20.0338695,9.97168601 20.1826594,10.0330749 20.2411828,10.1621813" id="Fill-21" fill="#FFFFFF"></path>
                                    <path d="M17.0779781,11.4288891 C17.9810719,11.1484547 18.7558313,11.6000016 19.3000641,12.0895734 C19.8062719,12.5458734 20.1793922,13.3705406 20.5026047,13.8577359 C20.8258172,14.3449313 21.4936313,14.8844109 21.9285422,15.5831203 C22.3634531,16.2818297 22.9076859,18.5371875 22.5773438,18.6845344 C21.2274563,19.2739219 21.6766266,17.4962531 20.6974828,17.6269641 C20.2554422,17.6887547 18.6084844,19.7516109 17.7053906,20.3932828 C16.9092422,20.9565281 14.1215344,21.8192203 14.1215344,21.8192203 C14.1215344,21.8192203 16.845075,20.6309391 17.4701109,19.7896359 C17.8694965,19.2528298 18.0995463,18.6090214 18.1307953,17.9406703 C18.1545609,17.0256938 17.8812563,16.4695781 17.0684719,15.4737984 C16.2889594,14.5231734 15.5878734,14.3972156 15.4262672,13.1281313 C15.3597234,12.5934047 16.0227844,11.7687375 17.0898609,11.4407719" id="Fill-23" fill="#818080"></path>
                                    <path d="M19.2335203,12.6480656 C19.3048172,13.1019891 18.6916641,13.574925 17.8598672,13.7080125 C17.0280703,13.8411 16.2960891,13.5796781 16.2224156,13.1257547 C16.1487422,12.6718312 16.7666484,12.1988953 17.5984453,12.0658078 C18.4302422,11.9327203 19.1622234,12.1941422 19.2335203,12.6480656" id="Fill-25" fill="#000000" fill-rule="nonzero"></path>
                                    <g id="tongue" transform="translate(19.250156, 16.160625)" fill-rule="nonzero">
                                        <g id="Group-5">
                                            <path d="M3.35570625,1.62319219 C2.90178281,1.31661562 2.74968281,1.44495 2.34804375,0.232903125 C2.08186875,0.529973438 1.64933437,0.197254687 1.32612187,0.401639062 C0.933091449,0.688531322 0.576370389,1.02210941 0.263798437,1.39504219 C0.181288583,1.28678969 0.0932382982,1.18287449 0,1.0837125 C0.7605,1.84896563 0.77000625,2.63798438 0.950625,2.90653594 C1.06190944,3.08761485 1.21516002,3.2392351 1.39741875,3.34857656 C1.91108475,3.60018469 2.5107314,3.60716748 3.03011719,3.36758906 C3.33145492,3.23376511 3.58151953,3.00620632 3.74308594,2.7187875 C4.0116375,2.29100625 3.8025,1.91313281 3.35570625,1.62319219 Z" id="Path" fill="#AC676D"></path>
                                            <path d="M2.05335,0.363614063 C1.80951949,0.230635791 1.50893277,0.261828752 1.29760312,0.442040625 C0.867445312,0.743864062 0.430157812,0.895964062 1.19303437,1.08133594 C1.95591094,1.26670781 2.78295469,2.69739844 2.78295469,2.69739844 C2.44075922,2.02212733 2.19515615,1.30211832 2.05335,0.558492188 C2.02720781,0.06654375 2.05335,0.363614063 2.05335,0.363614063 Z" id="Path" fill="#322631" opacity="0.5"></path>
                                        </g>
                                    </g>
                                    <path d="M21.2131969,15.8492953 C20.7027349,15.5739939 20.1575812,15.3685621 19.5923813,15.2385188 C19.5923813,15.2385188 20.2697016,15.9728766 19.8799453,16.7024813 C19.7302219,16.9781625 18.8699063,18.4872797 18.7201828,18.8199984 C18.3172721,19.5821844 17.6142194,20.1413526 16.7809078,20.3623875 C17.7096429,20.3072554 18.5351552,19.7520597 18.93645,18.9126844 C19.3951266,18.1070297 19.9868906,17.1896766 20.5739016,16.8308156 C21.0706031,16.5266156 21.5577984,16.6121719 21.7075219,16.8308156 C22.0426172,16.5171094 21.2773641,15.9467344 21.2131969,15.8492953 Z" id="Path" fill="#241F20" fill-rule="nonzero"></path>
                                </g>
                            </g>
                        </g>
                    </g>
                </g>
            </g>
        </g>
    </g>
</svg>