<svg xmlns="http://www.w3.org/2000/svg" xmlns:xlink="http://www.w3.org/1999/xlink" viewBox="0 0 80 81"><defs><path id="a" d="M.052.094h11.305v12.59H.052z"/><path id="c" d="M0 .062h15.012v13.422H0z"/></defs><g fill="none" fill-rule="evenodd"><path d="M37.286 27.025l-.48-.806c-1.214-2.028-.55-4.698 1.471-5.931l6.51-3.973a4.267 4.267 0 015.882 1.445l.481.806c1.212 2.028.55 4.697-1.472 5.931l-6.51 3.973a4.267 4.267 0 01-5.882-1.445" fill="#4669B2"/><g transform="rotate(21 -13.116 116.704)"><mask id="b" fill="#fff"><use xlink:href="#a"/></mask><path d="M1.445 11.919C-.125 10.686-.411 8.38.81 6.796l4.08-5.297A3.603 3.603 0 019.966.86c1.57 1.232 1.856 3.537.635 5.122l-4.08 5.296a3.604 3.604 0 01-5.075.642" fill="#3798E4" mask="url(#b)"/></g><path d="M48.768 29.852c3.37 5.245.483 13.176-6.445 17.715-5.541 3.63-12.55 3.47-16.41.994l-.007.007s-4.274-3.532-15.474 4.524l.912-5.282 10.88-7.218.211-.136c.314-4.29 3.008-8.816 7.688-11.881 6.928-4.54 15.276-3.968 18.645 1.277z" fill="#4669B2"/><path d="M35.93 15.438c.1.04.154.064.154.064l11.242 12.603-.002-.001 1.017 1.139c-3.802-2.917-11.218 2.36-11.218 2.36L11.343 47.81l-9.26-11.438.066-.05-.922-1.14 12.79-9.65.66-.499c4.4-3.32 8.687-6.555 10.758-8.12 4.412-3.332 9.04-2.008 10.31-1.545z" fill="#3798E4"/><g transform="rotate(21 -94.131 20.933)"><mask id="d" fill="#fff"><use xlink:href="#c"/></mask><path fill="#616A9B" mask="url(#d)" d="M0 .062l2.635 6.061 12.377 7.36-1.042-5.257z"/></g><path d="M31.671 29.825c1.94-1.607 4.093-2.597 6.458-2.97l-8.395-9.429s-1.384-.531-5.712 3.237l7.65 9.162z" fill="#4669B2"/><path d="M46.612 20.248c1.46 2.136 33.029 22.913 22.848 39.948-12.297 20.576-42.41 4.187-39.633-2.889 5.708-14.55 45.584 16.581 48.798-7.282 1.742-12.942-18.14-20.914-27.661-26.375" stroke="#AAA" stroke-width="2.78" stroke-linecap="round" stroke-linejoin="round"/></g></svg>
